{"title":"How I Met Your Mother S06E23 HDTV XviD [ThumperRG]","uid":6381751,"size":183380097,"categoryP":"video","categoryS":"tv_shows","magnet":"?xt=urn:btih:218836cdd99bcf4cbbf189b88ba4d1aae3e2b108&amp;dn=How+I+Met+Your+Mother+S06E23+HDTV+XviD+%5BThumperRG%5D&amp;tr=udp%3A%2F%2Ftracker.openbittorrent.com%3A80&amp;tr=udp%3A%2F%2Fopen.demonii.com%3A1337&amp;tr=udp%3A%2F%2Ftracker.coppersurfer.tk%3A6969&amp;tr=udp%3A%2F%2Fexodus.desync.com%3A6969","seeders":1,"leechers":0,"uploader":"rahulro","files":3,"time":1305053655,"description":" More AT: &lt;a href=&quot; http://wallpapers2012.com/&quot; rel=&quot;nofollow&quot; target=&quot;_NEW&quot;&gt; http://wallpapers2012.com/&lt;/a&gt;\n\nShow Summary: The gang tells Ted their real feelings about Zoey as he prepares to make a decision that could affect his future with her...\n\nGeneral:\nComplete name : D:\\How I Met Your Mother S06E23 HDTV XviD [ThumperRG]\\How I Met Your Mother S06E23 HDTV XviD [ThumperRG].avi \nFormat : AVI \nFormat/Info : Audio Video Interleave \nFile size : 175 MiB \nDuration : 21mn 7s \nOverall bit rate : 1 157 Kbps\n\nVideo:\nID : 0 \nFormat : MPEG-4 Visual \nFormat profile : Advanced Simple@L5 \nFormat settings, BVOP : 2 \nFormat settings, QPel : No \nFormat settings, GMC : No warppoints \nFormat settings, Matrix : Default (H.263) \nCodec ID : XVID \nCodec ID/Hint : XviD \nDuration : 21mn 7s \nBit rate : 1 012 Kbps \nWidth : 624 pixels \nHeight : 352 pixels \nDisplay aspect ratio : 16:9 \nFrame rate : 23.976 fps \nColor space : YUV \nChroma subsampling : 4:2:0 \nBit depth : 8 bits \nScan type : Progressive \nCompression mode : Lossy \nBits/(Pixel*Frame) : 0.192 \nStream size : 153 MiB (87%)\n\nAudio: \nID : 1 \nFormat : MPEG Audio \nFormat version : Version 1 \nFormat profile : Layer 3 \nMode : Joint stereo \nMode extension : MS Stereo \nCodec ID : 55 \nCodec ID/Hint : MP3 \nDuration : 21mn 7s \nBit rate mode : Variable \nBit rate : 128 Kbps \nChannel(s) : 2 channels \nSampling rate : 48.0 KHz \nCompression mode : Lossy \nStream size : 20.0 MiB (11%)\n\n More AT: &lt;a href=&quot; http://wallpapers2012.com/&quot; rel=&quot;nofollow&quot; target=&quot;_NEW&quot;&gt; http://wallpapers2012.com/&lt;/a&gt;","torrent":{"xt":"urn:btih:218836cdd99bcf4cbbf189b88ba4d1aae3e2b108","amp;dn":"How+I+Met+Your+Mother+S06E23+HDTV+XviD+%5BThumperRG%5D","amp;tr":["udp%3A%2F%2Ftracker.openbittorrent.com%3A80","udp%3A%2F%2Fopen.demonii.com%3A1337","udp%3A%2F%2Ftracker.coppersurfer.tk%3A6969","udp%3A%2F%2Fexodus.desync.com%3A6969"],"infoHash":"218836cdd99bcf4cbbf189b88ba4d1aae3e2b108","infoHashBuffer":{"type":"Buffer","data":[33,136,54,205,217,155,207,76,187,241,137,184,139,164,209,170,227,226,177,8]},"announce":[],"urlList":[]}}